<svg xmlns="http://www.w3.org/2000/svg" width="120" height="120" viewBox="0 0 24 24" fill="none" stroke="#3b82f6" stroke-width="2" stroke-linecap="round" stroke-linejoin="round">
  <defs>
    <linearGradient id="sunGradient" x1="0%" y1="0%" x2="100%" y2="100%">
      <stop offset="0%" stop-color="#f59e0b" />
      <stop offset="100%" stop-color="#f97316" />
    </linearGradient>
    <linearGradient id="cloudGradient" x1="0%" y1="0%" x2="100%" y2="100%">
      <stop offset="0%" stop-color="#60a5fa" />
      <stop offset="100%" stop-color="#3b82f6" />
    </linearGradient>
    <filter id="glow" x="-20%" y="-20%" width="140%" height="140%">
      <feGaussianBlur stdDeviation="1" result="blur" />
      <feComposite in="SourceGraphic" in2="blur" operator="over" />
    </filter>
  </defs>
  <circle cx="12" cy="9" r="5" fill="url(#sunGradient)" filter="url(#glow)" />
  <line x1="12" y1="2" x2="12" y2="4" stroke="#f59e0b" />
  <line x1="12" y1="14" x2="12" y2="16" stroke="#f59e0b" />
  <line x1="5.64" y1="3.64" x2="7.05" y2="5.05" stroke="#f59e0b" />
  <line x1="16.95" y1="14.95" x2="18.36" y2="16.36" stroke="#f59e0b" />
  <line x1="3.64" y1="12.36" x2="5.05" y2="10.95" stroke="#f59e0b" />
  <line x1="14.95" y1="7.05" x2="16.36" y2="5.64" stroke="#f59e0b" />
  <line x1="2" y1="9" x2="4" y2="9" stroke="#f59e0b" />
  <line x1="20" y1="9" x2="22" y2="9" stroke="#f59e0b" />
  <path d="M16 18.5c1.66 0 3-1.34 3-3 0-1.12-0.61-2.1-1.5-2.63 0.24-0.57 0.38-1.2 0.38-1.87 0-2.76-2.24-5-5-5-2.4 0-4.4 1.7-4.88 3.95-0.6-0.23-1.25-0.36-1.93-0.36-2.96 0-5.37 2.41-5.37 5.37 0 2.96 2.41 5.37 5.37 5.37" stroke="url(#cloudGradient)" stroke-width="2" fill="url(#cloudGradient)" filter="url(#glow)" />
</svg> 